<svg xmlns="http://www.w3.org/2000/svg" xmlns:xlink="http://www.w3.org/1999/xlink" width="484.375" height="110.107421875"><path stroke="black" fill="black" stroke-width="1" d="M24.71 83.11L25.44 84.03Q29.25 88.67 31.25 90.72Q33.25 92.77 35.67 93.82Q38.09 94.87 41.70 94.87L41.70 94.87Q43.65 94.87 46.68 93.82Q49.71 92.77 51.46 91.11L51.46 91.11Q52.59 90.43 52.59 89.21L52.59 89.21Q52.59 88.38 52.00 87.72Q51.42 87.06 50.63 87.06L50.63 87.06Q49.85 87.06 49.22 87.50L49.22 87.50Q44.34 90.77 40.82 90.77L40.82 90.77Q37.79 90.77 35.25 88.13L35.25 88.13L31.05 83.69Q38.77 83.50 44.26 79.32Q49.76 75.15 52.51 68.53Q55.27 61.91 55.27 54.44L55.27 54.44Q55.27 46.83 52.42 40.06Q49.56 33.30 43.90 29.10Q38.23 24.90 30.27 24.90L30.27 24.90Q22.31 24.90 16.65 29.10Q10.99 33.30 8.13 40.06Q5.27 46.83 5.27 54.44L5.27 54.44Q5.27 61.13 7.50 67.16Q9.72 73.19 14.09 77.47Q18.46 81.74 24.71 83.11L24.71 83.11ZM50.59 54.44Q50.59 60.94 48.29 66.67Q46.00 72.41 41.41 75.95Q36.82 79.49 30.27 79.49L30.27 79.49Q23.73 79.49 19.14 75.95Q14.55 72.41 12.26 66.67Q9.96 60.94 9.96 54.44L9.96 54.44Q9.96 47.85 12.30 42.07Q14.65 36.28 19.24 32.69Q23.83 29.10 30.27 29.10L30.27 29.10Q36.72 29.10 41.31 32.69Q45.90 36.28 48.24 42.07Q50.59 47.85 50.59 54.44L50.59 54.44ZM78.42 70.21L78.42 45.36Q78.42 44.68 77.95 44.19Q77.49 43.70 76.76 43.70L76.76 43.70Q76.56 43.70 76.17 43.80L76.17 43.80L67.63 45.51Q66.75 45.70 66.31 46.19Q65.87 46.68 65.87 47.36L65.87 47.36Q65.87 48.19 66.50 48.83Q67.14 49.46 68.12 49.46L68.12 49.46Q68.65 49.46 68.95 49.37L68.95 49.37L73.73 48.39L73.73 70.07Q73.73 74.12 75.42 77.20Q77.10 80.27 80.32 81.98Q83.54 83.69 87.94 83.69L87.94 83.69Q92.53 83.69 96.78 81.59Q101.03 79.49 103.17 76.32L103.17 76.32L103.42 80.57Q103.47 81.79 104.10 82.40Q104.74 83.01 105.71 83.01L105.71 83.01L106.05 83.01L115.14 82.03Q116.02 81.84 116.50 81.23Q116.99 80.62 116.99 79.88L116.99 79.88Q116.99 79.15 116.50 78.66Q116.02 78.17 115.04 78.17L115.04 78.17L114.75 78.17L107.52 78.71L107.52 45.36Q107.52 44.68 107.06 44.19Q106.59 43.70 105.86 43.70L105.86 43.70Q105.66 43.70 105.27 43.80L105.27 43.80L96.78 45.51Q95.85 45.70 95.39 46.22Q94.92 46.73 94.92 47.41L94.92 47.41Q94.92 48.24 95.56 48.88Q96.19 49.51 97.22 49.51L97.22 49.51Q97.66 49.51 98.10 49.37L98.10 49.37L102.83 48.39L102.83 71.58Q101.76 73.83 99.34 75.68Q96.92 77.54 93.90 78.61Q90.87 79.69 87.99 79.69L87.99 79.69Q83.25 79.69 80.83 77.08Q78.42 74.46 78.42 70.21L78.42 70.21ZM167.87 47.51Q167.87 45.26 167.33 44.53Q166.80 43.80 165.87 43.80L165.87 43.80Q165.09 43.80 164.58 44.09Q164.06 44.38 163.72 45.51Q163.38 46.63 163.38 48.97L163.38 48.97Q160.84 46.39 157.18 44.78Q153.52 43.16 149.12 43.16L149.12 43.16Q143.51 43.16 139.38 45.75Q135.25 48.34 133.06 52.93Q130.86 57.52 130.86 63.43L130.86 63.43Q130.86 69.24 133.11 73.85Q135.35 78.47 139.53 81.08Q143.70 83.69 149.32 83.69L149.32 83.69Q153.76 83.69 157.01 82.37Q160.25 81.05 163.18 78.52L163.18 78.52L163.18 96.92L152.64 96.92Q151.66 96.92 151.12 97.49Q150.59 98.05 150.59 98.83L150.59 98.83Q150.59 99.66 151.17 100.29Q151.76 100.93 152.83 100.93L152.83 100.93L172.17 100.93Q173.14 100.93 173.68 100.32Q174.22 99.71 174.22 98.88L174.22 98.88Q174.22 98.10 173.71 97.51Q173.19 96.92 172.27 96.92L172.27 96.92L167.87 96.92L167.87 47.51ZM149.22 47.17Q153.91 47.17 157.40 49.07Q160.89 50.98 163.18 54.25L163.18 54.25L163.18 73.39Q158.15 79.69 149.61 79.69L149.61 79.69Q145.12 79.69 141.94 77.49Q138.77 75.29 137.16 71.58Q135.55 67.87 135.55 63.43L135.55 63.43Q135.55 58.94 137.11 55.25Q138.67 51.56 141.75 49.37Q144.82 47.17 149.22 47.17L149.22 47.17ZM221.39 58.94L221.39 59.91L217.82 60.16Q209.86 60.69 205.15 61.52Q200.44 62.35 197.22 64.94Q193.99 67.53 193.99 72.61L193.99 72.61Q193.99 77.64 197.07 80.64Q200.15 83.64 205.62 83.64L205.62 83.64Q210.69 83.64 215.01 81.84Q219.34 80.03 221.73 77.34L221.73 77.34Q222.31 80.81 224.02 82.01Q225.73 83.20 228.22 83.20L228.22 83.20Q230.42 83.20 232.45 82.25Q234.47 81.30 236.04 79.64L236.04 79.64Q236.52 79.15 236.52 78.42L236.52 78.42Q236.52 77.64 235.99 77.00Q235.45 76.37 234.72 76.37L234.72 76.37Q234.08 76.37 233.54 76.95L233.54 76.95Q232.71 77.83 231.30 78.59Q229.88 79.35 228.61 79.35L228.61 79.35Q227.44 79.35 226.76 78.74Q226.07 78.13 226.07 76.42L226.07 76.42L226.07 61.18Q226.07 55.22 224.80 51.29Q223.54 47.36 220.34 45.26Q217.14 43.16 211.52 43.16L211.52 43.16Q206.54 43.16 202.69 44.48Q198.83 45.80 196.68 48.14Q194.53 50.49 194.53 53.42L194.53 53.42Q194.53 54.98 195.29 55.96Q196.04 56.93 197.46 56.93L197.46 56.93Q199.12 56.93 199.80 55.03Q200.49 53.13 200.68 49.37L200.68 49.37Q203.27 48.19 205.83 47.68Q208.40 47.17 211.47 47.17L211.47 47.17Q216.94 47.17 219.17 50.20Q221.39 53.22 221.39 58.94L221.39 58.94ZM221.39 73.63Q218.75 76.42 214.62 78.05Q210.50 79.69 206.15 79.69L206.15 79.69Q202.78 79.69 200.76 78.00Q198.73 76.32 198.73 72.61L198.73 72.61Q198.73 69.19 201.07 67.43Q203.42 65.67 207.40 64.97Q211.38 64.26 219.38 63.48L219.38 63.48L221.39 63.28L221.39 73.63ZM283.35 50.63Q286.82 49.61 289.09 46.68Q291.36 43.75 291.36 39.45L291.36 39.45Q291.36 32.03 285.82 28.86Q280.27 25.68 271.09 25.68L271.09 25.68L253.71 25.68Q252.59 25.68 251.98 26.29Q251.37 26.90 251.37 27.73L251.37 27.73Q251.37 28.61 252.00 29.25Q252.64 29.88 253.76 29.88L253.76 29.88L261.87 29.88L261.87 78.66L254.05 78.66Q252.93 78.66 252.27 79.30Q251.61 79.93 251.61 80.76L251.61 80.76Q251.61 81.64 252.27 82.25Q252.93 82.86 254.10 82.86L254.10 82.86L271.58 82.86Q282.57 82.86 289.33 78.69Q296.09 74.51 296.09 65.87L296.09 65.87Q296.09 58.98 292.55 55.22Q289.01 51.46 283.35 50.63L283.35 50.63ZM272.90 50L266.55 50L266.55 29.88L271.73 29.88Q279.10 29.88 283.13 32.13Q287.16 34.38 287.16 39.65L287.16 39.65Q287.16 43.16 285.16 45.51Q283.15 47.85 279.93 48.93Q276.71 50 272.90 50L272.90 50ZM271.73 78.66L266.55 78.66L266.55 53.71L272.90 53.71Q278.61 53.71 282.54 54.49Q286.47 55.27 288.94 57.76Q291.41 60.25 291.41 65.14L291.41 65.14Q291.41 72.41 286.23 75.54Q281.05 78.66 271.73 78.66L271.73 78.66ZM336.08 25.15L335.55 25.20L315.14 27.05Q314.36 27.15 313.96 27.71Q313.57 28.27 313.57 29.00L313.57 29.00Q313.57 29.83 314.11 30.44Q314.65 31.05 315.58 31.05L315.58 31.05L315.92 31.01L333.15 29.64L333.15 78.86L315.14 78.86Q314.16 78.86 313.62 79.44Q313.09 80.03 313.09 80.81L313.09 80.81Q313.09 81.64 313.67 82.25Q314.26 82.86 315.33 82.86L315.33 82.86L354.39 82.86Q355.32 82.86 355.83 82.28Q356.35 81.69 356.35 80.86L356.35 80.86Q356.35 80.08 355.83 79.47Q355.32 78.86 354.44 78.86L354.44 78.86L337.84 78.86L337.84 26.71Q337.84 25.98 337.35 25.56Q336.87 25.15 336.08 25.15L336.08 25.15ZM372.85 63.43Q372.85 69.53 375.44 74.12Q378.03 78.71 382.71 81.20Q387.40 83.69 393.55 83.69L393.55 83.69Q399.71 83.69 404.39 81.20Q409.08 78.71 411.67 74.12Q414.26 69.53 414.26 63.43L414.26 63.43Q414.26 57.28 411.67 52.69Q409.08 48.10 404.39 45.63Q399.71 43.16 393.55 43.16L393.55 43.16Q387.40 43.16 382.71 45.63Q378.03 48.10 375.44 52.69Q372.85 57.28 372.85 63.43L372.85 63.43ZM378.13 63.43Q378.13 58.69 379.96 55.00Q381.79 51.32 385.28 49.24Q388.77 47.17 393.55 47.17L393.55 47.17Q398.34 47.17 401.83 49.24Q405.32 51.32 407.15 55.00Q408.98 58.69 408.98 63.43L408.98 63.43Q408.98 68.21 407.15 71.90Q405.32 75.59 401.83 77.64Q398.34 79.69 393.55 79.69L393.55 79.69Q388.77 79.69 385.28 77.64Q381.79 75.59 379.96 71.90Q378.13 68.21 378.13 63.43L378.13 63.43ZM443.31 73.58Q443.31 72.31 444.56 71.22Q445.80 70.12 447.92 69.48Q450.05 68.85 452.54 68.85L452.54 68.85Q460.79 68.85 464.87 65.87Q468.95 62.89 468.95 56.49L468.95 56.49Q468.95 52.10 466.16 48.63L466.16 48.63L474.41 45.02Q477.83 45.02 479.37 44.34Q480.91 43.65 480.91 42.53L480.91 42.53Q480.91 40.04 478.08 40.04L478.08 40.04Q475.20 40.04 472.17 42.09L472.17 42.09L464.75 47.02Q462.45 45.12 459.42 44.14Q456.40 43.16 453.08 43.16L453.08 43.16Q448.73 43.16 445.14 44.60Q441.55 46.04 439.43 49.00Q437.30 51.95 437.30 56.25L437.30 56.25Q437.30 60.25 439.40 62.62Q441.50 64.99 445.70 66.70L445.70 66.70Q444.29 66.89 442.63 67.90Q440.97 68.90 439.79 70.48Q438.62 72.07 438.62 73.83L438.62 73.83Q438.62 76.03 439.77 77.47Q440.92 78.91 443.21 80.03L443.21 80.03Q440.63 81.30 439.01 83.91Q437.40 86.52 437.40 90.04L437.40 90.04Q437.40 95.41 441.60 97.68Q445.80 99.95 452.39 99.95L452.39 99.95Q457.62 99.95 462.18 98.68Q466.75 97.41 469.56 94.82Q472.36 92.24 472.36 88.43L472.36 88.43Q472.36 83.94 470.41 81.59Q468.46 79.25 464.79 78.39Q461.13 77.54 455.13 77.54L455.13 77.54L450.59 77.54Q447.56 77.54 445.97 77.03Q444.38 76.51 443.85 75.66Q443.31 74.80 443.31 73.58L443.31 73.58ZM452.69 65.23Q448.00 65.23 445.00 62.96Q441.99 60.69 441.99 56.40L441.99 56.40Q441.99 51.76 445.07 49.46Q448.14 47.17 452.98 47.17L452.98 47.17Q457.91 47.17 461.08 49.49Q464.26 51.81 464.26 56.79L464.26 56.79Q464.26 61.43 461.04 63.33Q457.81 65.23 452.69 65.23L452.69 65.23ZM455.27 81.05Q460.11 81.05 462.74 81.71Q465.38 82.37 466.53 83.98Q467.68 85.60 467.68 88.62L467.68 88.62Q467.68 92.43 463.06 94.19Q458.45 95.95 452.29 95.95L452.29 95.95Q447.02 95.95 444.56 94.41Q442.09 92.87 442.09 88.82L442.09 88.82Q442.09 87.45 442.75 85.77Q443.41 84.08 444.38 82.74Q445.36 81.40 446.29 81.05L446.29 81.05L455.27 81.05Z"/></svg>