<svg xmlns="http://www.w3.org/2000/svg" xmlns:xlink="http://www.w3.org/1999/xlink" width="423.828125" height="110.107421875"><path stroke="black" fill="black" stroke-width="1" d="M24.71 83.11L25.44 84.03Q29.25 88.67 31.25 90.72Q33.25 92.77 35.67 93.82Q38.09 94.87 41.70 94.87L41.70 94.87Q43.65 94.87 46.68 93.82Q49.71 92.77 51.46 91.11L51.46 91.11Q52.59 90.43 52.59 89.21L52.59 89.21Q52.59 88.38 52.00 87.72Q51.42 87.06 50.63 87.06L50.63 87.06Q49.85 87.06 49.22 87.50L49.22 87.50Q44.34 90.77 40.82 90.77L40.82 90.77Q37.79 90.77 35.25 88.13L35.25 88.13L31.05 83.69Q38.77 83.50 44.26 79.32Q49.76 75.15 52.51 68.53Q55.27 61.91 55.27 54.44L55.27 54.44Q55.27 46.83 52.42 40.06Q49.56 33.30 43.90 29.10Q38.23 24.90 30.27 24.90L30.27 24.90Q22.31 24.90 16.65 29.10Q10.99 33.30 8.13 40.06Q5.27 46.83 5.27 54.44L5.27 54.44Q5.27 61.13 7.50 67.16Q9.72 73.19 14.09 77.47Q18.46 81.74 24.71 83.11L24.71 83.11ZM50.59 54.44Q50.59 60.94 48.29 66.67Q46.00 72.41 41.41 75.95Q36.82 79.49 30.27 79.49L30.27 79.49Q23.73 79.49 19.14 75.95Q14.55 72.41 12.26 66.67Q9.96 60.94 9.96 54.44L9.96 54.44Q9.96 47.85 12.30 42.07Q14.65 36.28 19.24 32.69Q23.83 29.10 30.27 29.10L30.27 29.10Q36.72 29.10 41.31 32.69Q45.90 36.28 48.24 42.07Q50.59 47.85 50.59 54.44L50.59 54.44ZM78.42 70.21L78.42 45.36Q78.42 44.68 77.95 44.19Q77.49 43.70 76.76 43.70L76.76 43.70Q76.56 43.70 76.17 43.80L76.17 43.80L67.63 45.51Q66.75 45.70 66.31 46.19Q65.87 46.68 65.87 47.36L65.87 47.36Q65.87 48.19 66.50 48.83Q67.14 49.46 68.12 49.46L68.12 49.46Q68.65 49.46 68.95 49.37L68.95 49.37L73.73 48.39L73.73 70.07Q73.73 74.12 75.42 77.20Q77.10 80.27 80.32 81.98Q83.54 83.69 87.94 83.69L87.94 83.69Q92.53 83.69 96.78 81.59Q101.03 79.49 103.17 76.32L103.17 76.32L103.42 80.57Q103.47 81.79 104.10 82.40Q104.74 83.01 105.71 83.01L105.71 83.01L106.05 83.01L115.14 82.03Q116.02 81.84 116.50 81.23Q116.99 80.62 116.99 79.88L116.99 79.88Q116.99 79.15 116.50 78.66Q116.02 78.17 115.04 78.17L115.04 78.17L114.75 78.17L107.52 78.71L107.52 45.36Q107.52 44.68 107.06 44.19Q106.59 43.70 105.86 43.70L105.86 43.70Q105.66 43.70 105.27 43.80L105.27 43.80L96.78 45.51Q95.85 45.70 95.39 46.22Q94.92 46.73 94.92 47.41L94.92 47.41Q94.92 48.24 95.56 48.88Q96.19 49.51 97.22 49.51L97.22 49.51Q97.66 49.51 98.10 49.37L98.10 49.37L102.83 48.39L102.83 71.58Q101.76 73.83 99.34 75.68Q96.92 77.54 93.90 78.61Q90.87 79.69 87.99 79.69L87.99 79.69Q83.25 79.69 80.83 77.08Q78.42 74.46 78.42 70.21L78.42 70.21ZM167.87 47.51Q167.87 45.26 167.33 44.53Q166.80 43.80 165.87 43.80L165.87 43.80Q165.09 43.80 164.58 44.09Q164.06 44.38 163.72 45.51Q163.38 46.63 163.38 48.97L163.38 48.97Q160.84 46.39 157.18 44.78Q153.52 43.16 149.12 43.16L149.12 43.16Q143.51 43.16 139.38 45.75Q135.25 48.34 133.06 52.93Q130.86 57.52 130.86 63.43L130.86 63.43Q130.86 69.24 133.11 73.85Q135.35 78.47 139.53 81.08Q143.70 83.69 149.32 83.69L149.32 83.69Q153.76 83.69 157.01 82.37Q160.25 81.05 163.18 78.52L163.18 78.52L163.18 96.92L152.64 96.92Q151.66 96.92 151.12 97.49Q150.59 98.05 150.59 98.83L150.59 98.83Q150.59 99.66 151.17 100.29Q151.76 100.93 152.83 100.93L152.83 100.93L172.17 100.93Q173.14 100.93 173.68 100.32Q174.22 99.71 174.22 98.88L174.22 98.88Q174.22 98.10 173.71 97.51Q173.19 96.92 172.27 96.92L172.27 96.92L167.87 96.92L167.87 47.51ZM149.22 47.17Q153.91 47.17 157.40 49.07Q160.89 50.98 163.18 54.25L163.18 54.25L163.18 73.39Q158.15 79.69 149.61 79.69L149.61 79.69Q145.12 79.69 141.94 77.49Q138.77 75.29 137.16 71.58Q135.55 67.87 135.55 63.43L135.55 63.43Q135.55 58.94 137.11 55.25Q138.67 51.56 141.75 49.37Q144.82 47.17 149.22 47.17L149.22 47.17ZM221.39 58.94L221.39 59.91L217.82 60.16Q209.86 60.69 205.15 61.52Q200.44 62.35 197.22 64.94Q193.99 67.53 193.99 72.61L193.99 72.61Q193.99 77.64 197.07 80.64Q200.15 83.64 205.62 83.64L205.62 83.64Q210.69 83.64 215.01 81.84Q219.34 80.03 221.73 77.34L221.73 77.34Q222.31 80.81 224.02 82.01Q225.73 83.20 228.22 83.20L228.22 83.20Q230.42 83.20 232.45 82.25Q234.47 81.30 236.04 79.64L236.04 79.64Q236.52 79.15 236.52 78.42L236.52 78.42Q236.52 77.64 235.99 77.00Q235.45 76.37 234.72 76.37L234.72 76.37Q234.08 76.37 233.54 76.95L233.54 76.95Q232.71 77.83 231.30 78.59Q229.88 79.35 228.61 79.35L228.61 79.35Q227.44 79.35 226.76 78.74Q226.07 78.13 226.07 76.42L226.07 76.42L226.07 61.18Q226.07 55.22 224.80 51.29Q223.54 47.36 220.34 45.26Q217.14 43.16 211.52 43.16L211.52 43.16Q206.54 43.16 202.69 44.48Q198.83 45.80 196.68 48.14Q194.53 50.49 194.53 53.42L194.53 53.42Q194.53 54.98 195.29 55.96Q196.04 56.93 197.46 56.93L197.46 56.93Q199.12 56.93 199.80 55.03Q200.49 53.13 200.68 49.37L200.68 49.37Q203.27 48.19 205.83 47.68Q208.40 47.17 211.47 47.17L211.47 47.17Q216.94 47.17 219.17 50.20Q221.39 53.22 221.39 58.94L221.39 58.94ZM221.39 73.63Q218.75 76.42 214.62 78.05Q210.50 79.69 206.15 79.69L206.15 79.69Q202.78 79.69 200.76 78.00Q198.73 76.32 198.73 72.61L198.73 72.61Q198.73 69.19 201.07 67.43Q203.42 65.67 207.40 64.97Q211.38 64.26 219.38 63.48L219.38 63.48L221.39 63.28L221.39 73.63ZM267.33 25.68L249.85 25.68Q248.73 25.68 248.07 26.32Q247.41 26.95 247.41 27.83L247.41 27.83Q247.41 28.66 248.02 29.27Q248.63 29.88 249.76 29.88L249.76 29.88L257.52 29.88L257.52 78.66L249.56 78.66Q248.44 78.66 247.78 79.30Q247.12 79.93 247.12 80.76L247.12 80.76Q247.12 81.64 247.78 82.25Q248.44 82.86 249.61 82.86L249.61 82.86L267.24 82.86Q280.91 82.86 288.01 75.95Q295.12 69.04 295.12 54.00L295.12 54.00Q295.12 39.75 287.74 32.71Q280.37 25.68 267.33 25.68L267.33 25.68ZM267.58 78.66L262.21 78.66L262.21 29.88L268.26 29.88Q278.96 29.88 284.69 36.13Q290.43 42.38 290.43 54.00L290.43 54.00Q290.43 66.50 284.96 72.58Q279.49 78.66 267.58 78.66L267.58 78.66ZM313.09 62.99Q313.09 69.38 315.87 74.05Q318.65 78.71 323.66 81.20Q328.66 83.69 335.21 83.69L335.21 83.69Q339.36 83.69 344.12 82.08Q348.88 80.47 351.42 77.73L351.42 77.73Q352.29 76.76 352.29 75.68L352.29 75.68Q352.29 74.80 351.76 74.17Q351.22 73.54 350.34 73.54L350.34 73.54Q349.37 73.54 348.34 74.37L348.34 74.37Q345.56 77.00 342.02 78.34Q338.48 79.69 334.81 79.69L334.81 79.69Q327.29 79.69 322.66 75.68Q318.02 71.68 317.77 63.96L317.77 63.96L348.49 63.72Q350.20 63.72 351.22 62.52Q352.25 61.33 352.25 59.47L352.25 59.47Q352.25 54.25 349.98 50.59Q347.71 46.92 343.73 45.04Q339.75 43.16 334.67 43.16L334.67 43.16Q328.71 43.16 323.80 45.56Q318.90 47.95 315.99 52.44Q313.09 56.93 313.09 62.99L313.09 62.99ZM334.77 47.17Q342.38 47.17 345.07 51.03Q347.75 54.88 348.10 60.16L348.10 60.16L317.92 60.35Q318.80 54.10 323.22 50.63Q327.64 47.17 334.77 47.17L334.77 47.17ZM371.88 45.07Q369.63 45.07 369.63 47.07L369.63 47.07Q369.63 49.07 371.68 49.07L371.68 49.07L376.61 49.07L390.97 79.98Q391.99 82.23 392.85 82.89Q393.70 83.54 394.87 83.54L394.87 83.54Q396.00 83.54 396.75 82.93Q397.51 82.32 398.39 80.22L398.39 80.22L411.43 49.07L415.77 49.07Q417.82 49.07 417.82 47.07L417.82 47.07Q417.82 45.07 415.58 45.07L415.58 45.07L402.83 45.07Q400.88 45.07 400.88 47.12L400.88 47.12Q400.88 49.07 402.78 49.07L402.78 49.07L406.93 49.07L395.02 78.37L381.98 49.07L387.30 49.07Q389.16 49.07 389.16 47.12L389.16 47.12Q389.16 45.07 387.26 45.07L387.26 45.07L371.88 45.07Z"/></svg>